<svg width="14" height="14" viewBox="0 0 14 14" fill="none" xmlns="http://www.w3.org/2000/svg">
<g clip-path="url(#clip0)">
<path d="M7.67464 13.2609H4.82103V7.31521H3.24902V4.58464H4.82099V3.05133C4.82099 1.64367 5.70167 0 8.18476 0C9.06013 0 9.70274 0.0820366 9.72959 0.0855715L9.99306 0.119818L9.92961 2.67516L9.6393 2.6725C9.6387 2.6725 8.98635 2.6663 8.27474 2.6663C7.74515 2.6663 7.67491 2.797 7.67491 3.31686V4.58524H10.0122L9.8827 7.31581H7.67519V13.2609H7.67464ZM5.41076 12.6708H7.08422V6.72544H9.31886L9.39263 5.17473H7.08422V3.31626C7.08422 2.70257 7.22553 2.07561 8.2741 2.07561C8.69544 2.07561 9.0958 2.07768 9.35334 2.07975L9.38905 0.643209C9.12853 0.619888 8.69512 0.590094 8.18412 0.590094C6.13922 0.590094 5.41044 1.86141 5.41044 3.05133V5.17473H3.83852V6.72544H5.41048V12.6708H5.41076Z" fill="#1E4D5B"/>
</g>
<defs>
<clipPath id="clip0">
<rect width="13.2609" height="13.2609" fill="white"/>
</clipPath>
</defs>
</svg>
