<svg width="15" height="14" viewBox="0 0 15 14" fill="none" xmlns="http://www.w3.org/2000/svg">
<g clip-path="url(#clip0)">
<path d="M2.81165 13.2609H12.1875C13.2586 13.2609 14.13 12.3895 14.13 11.3184V1.94251C14.13 0.871398 13.2586 0 12.1875 0H2.81165C1.74054 0 0.869141 0.871398 0.869141 1.94251V11.3184C0.869141 12.3895 1.74054 13.2609 2.81165 13.2609ZM1.64614 1.94251C1.64614 1.29986 2.169 0.777004 2.81165 0.777004H12.1875C12.8301 0.777004 13.353 1.29986 13.353 1.94251V11.3184C13.353 11.961 12.8301 12.4839 12.1875 12.4839H2.81165C2.169 12.4839 1.64614 11.961 1.64614 11.3184V1.94251Z" fill="#1E4D5B"/>
<path d="M7.49945 10.1269C9.42739 10.1269 10.996 8.55837 10.996 6.63043C10.996 4.70249 9.42739 3.13391 7.49945 3.13391C5.57151 3.13391 4.00293 4.70249 4.00293 6.63043C4.00293 8.55837 5.57151 10.1269 7.49945 10.1269ZM7.49945 3.91092C8.99903 3.91092 10.219 5.13085 10.219 6.63043C10.219 8.13001 8.99903 9.34994 7.49945 9.34994C5.99987 9.34994 4.77993 8.13001 4.77993 6.63043C4.77993 5.13085 5.99987 3.91092 7.49945 3.91092Z" fill="#1E4D5B"/>
<path d="M11.3843 3.91092C12.0269 3.91092 12.5498 3.38806 12.5498 2.74542C12.5498 2.10277 12.0269 1.57991 11.3843 1.57991C10.7416 1.57991 10.2188 2.10277 10.2188 2.74542C10.2188 3.38806 10.7416 3.91092 11.3843 3.91092ZM11.3843 2.35691C11.5984 2.35691 11.7728 2.53123 11.7728 2.74542C11.7728 2.9596 11.5984 3.13392 11.3843 3.13392C11.1701 3.13392 10.9958 2.9596 10.9958 2.74542C10.9958 2.53123 11.1701 2.35691 11.3843 2.35691Z" fill="#1E4D5B"/>
</g>
<defs>
<clipPath id="clip0">
<rect x="0.869141" width="13.2609" height="13.2609" fill="white"/>
</clipPath>
</defs>
</svg>
