<svg width="14" height="14" viewBox="0 0 14 14" fill="none" xmlns="http://www.w3.org/2000/svg">
<g clip-path="url(#clip0)">
<path d="M5.78502 12.1137C3.57178 12.1137 1.8225 11.727 0.985607 11.053L0.969318 11.0398L0.954547 11.025C0.755743 10.8261 0.690588 10.5652 0.775978 10.3093L0.783768 10.288C0.887368 10.0289 1.14121 9.85448 1.4163 9.85286C1.98246 9.84305 2.4778 9.77557 2.92731 9.64455C2.2103 9.31109 1.71223 8.7337 1.41589 7.89801C1.31624 7.63739 1.40223 7.34844 1.6319 7.17615C1.68855 7.13355 1.75259 7.10138 1.82038 7.07983C1.42196 6.6199 1.12765 6.09653 0.962843 5.54302L0.957683 5.52582L0.954142 5.50822C0.898194 5.22827 1.02334 4.94044 1.2527 4.8165C1.34892 4.76126 1.45343 4.73263 1.55834 4.7302C1.44523 4.48658 1.36298 4.23648 1.31421 3.98486C1.17885 3.28758 1.29054 2.58858 1.64606 1.90729L1.72831 1.74278C1.79418 1.61116 1.92004 1.51868 2.06512 1.49511C2.2102 1.47164 2.35892 1.51959 2.46282 1.6235L2.61266 1.77354C3.79638 3.01452 4.85667 3.60334 6.68981 4.00621C6.77166 3.30256 7.07588 2.64848 7.56667 2.13371C8.15074 1.52121 8.93067 1.17753 9.76282 1.16579H9.76828C10.3754 1.16579 11.1285 1.51241 11.584 1.75684C11.9747 1.62896 12.4455 1.43097 12.934 1.22164C13.1625 1.1144 13.4443 1.16347 13.624 1.34315C13.8001 1.51929 13.849 1.76767 13.7555 2.00907C13.72 2.10791 13.6797 2.20494 13.6349 2.29984C13.7018 2.33049 13.763 2.37207 13.8147 2.42377C13.971 2.58008 14.0361 2.82472 13.9806 3.0471L13.9746 3.06824C13.7875 3.67143 13.4279 4.16272 12.9524 4.4711C12.873 8.70021 9.68825 12.1137 5.78502 12.1137ZM1.73135 10.6199C2.51999 11.066 4.0229 11.336 5.78502 11.336C7.47915 11.336 9.07788 10.6086 10.2866 9.28792C11.5052 7.95639 12.1763 6.1882 12.1763 4.30902V4.28787C12.1763 4.1177 12.27 3.9624 12.4207 3.88248C12.7266 3.7205 12.9742 3.4446 13.1353 3.09181C12.9692 3.11802 12.8003 3.05135 12.6968 2.91233C12.5765 2.75076 12.5752 2.53253 12.6935 2.36954C12.7573 2.28152 12.8152 2.18996 12.8668 2.09527C12.445 2.27242 12.0445 2.43126 11.6967 2.53678C11.5704 2.57503 11.4295 2.56005 11.3141 2.49561C10.695 2.15071 10.1184 1.94452 9.77081 1.94351C8.48805 1.96313 7.44506 3.06177 7.44506 4.3938C7.44506 4.5315 7.38395 4.66059 7.27762 4.74811C7.17119 4.83552 7.03278 4.87053 6.89762 4.84382C4.78392 4.42739 3.53141 3.80296 2.22891 2.49409C2.04225 2.94137 1.99126 3.39189 2.07756 3.83675C2.16507 4.28737 2.39787 4.7389 2.75086 5.14248C2.88502 5.29565 2.90282 5.51479 2.79518 5.6877C2.68793 5.85999 2.48407 5.94053 2.2881 5.88802C2.13493 5.84694 1.99409 5.79302 1.86055 5.72371C2.1326 6.31466 2.60052 6.8612 3.18874 7.26427C3.35921 7.38112 3.43044 7.59895 3.36205 7.79401C3.29355 7.98937 3.10223 8.11513 2.89544 8.09975C2.67013 8.08306 2.47051 8.04026 2.28678 7.96812C2.61661 8.63981 3.14361 9.00939 3.95552 9.15063C4.14886 9.18432 4.29941 9.33699 4.33016 9.53053C4.36102 9.72407 4.26521 9.9159 4.0919 10.0079C3.39988 10.3747 2.64352 10.5716 1.73135 10.6199Z" fill="#1E4D5B"/>
</g>
<defs>
<clipPath id="clip0">
<rect x="0.739258" width="13.2609" height="13.2609" fill="white"/>
</clipPath>
</defs>
</svg>
