<svg width="17" height="17" viewBox="0 0 17 17" fill="none" xmlns="http://www.w3.org/2000/svg">
<g clip-path="url(#clip0)">
<path d="M16.9645 13.1719C16.9165 13.027 16.6105 12.8136 16.047 12.5321C15.8943 12.4434 15.6768 12.3228 15.3953 12.1699C15.1136 12.0169 14.8579 11.876 14.6286 11.7471C14.3989 11.6184 14.1837 11.4936 13.9826 11.3731C13.9505 11.3489 13.8499 11.2786 13.6809 11.1616C13.5117 11.045 13.369 10.9584 13.252 10.902C13.1354 10.8458 13.0206 10.8176 12.9079 10.8176C12.7469 10.8176 12.5459 10.9324 12.3045 11.1616C12.0631 11.3912 11.8417 11.6405 11.6406 11.9104C11.4394 12.1801 11.2261 12.4295 11.0009 12.6589C10.7754 12.8884 10.5902 13.003 10.4455 13.003C10.3728 13.003 10.2822 12.9828 10.1737 12.9428C10.0652 12.9026 9.98262 12.8681 9.92595 12.8404C9.86979 12.812 9.77342 12.7558 9.63649 12.671C9.4993 12.5865 9.42301 12.5402 9.40694 12.5321C8.30426 11.9202 7.35856 11.2199 6.56966 10.4314C5.78102 9.64235 5.08063 8.69673 4.46892 7.59392C4.46089 7.57781 4.4145 7.50131 4.33005 7.36455C4.24547 7.22766 4.1891 7.1312 4.16094 7.0747C4.13277 7.01841 4.09856 6.93587 4.05839 6.82723C4.01821 6.71859 3.99804 6.62809 3.99804 6.55556C3.99804 6.41077 4.11277 6.22554 4.34219 6.00014C4.57156 5.77487 4.82115 5.56148 5.0907 5.3604C5.36046 5.15931 5.60979 4.93789 5.83925 4.69651C6.06862 4.45499 6.18331 4.25387 6.18331 4.09292C6.18331 3.9803 6.15515 3.86549 6.09886 3.74881C6.04253 3.63189 5.95601 3.4892 5.83925 3.32009C5.72245 3.15106 5.65204 3.05054 5.62785 3.01819C5.50724 2.81711 5.38262 2.60182 5.25368 2.3724C5.12474 2.14303 4.984 1.88735 4.831 1.60566C4.67813 1.3241 4.55748 1.1067 4.46884 0.953781C4.18728 0.390452 3.97402 0.0844507 3.8291 0.0363261C3.77272 0.0121792 3.68815 0 3.57557 0C3.35813 0 3.07445 0.0401743 2.72434 0.120777C2.37411 0.201252 2.09851 0.285661 1.89726 0.37434C1.4948 0.543284 1.06823 1.03426 0.617433 1.84709C0.206936 2.60355 0.00170898 3.35227 0.00170898 4.09271C0.00170898 4.30986 0.0157911 4.52113 0.0439555 4.72657C0.0721198 4.9318 0.122443 5.16325 0.194969 5.42087C0.267367 5.67841 0.325768 5.86972 0.369917 5.99431C0.414109 6.11897 0.496614 6.3423 0.617391 6.66437C0.737999 6.98636 0.810524 7.18347 0.834671 7.25591C1.11636 8.04476 1.4504 8.749 1.8367 9.36882C2.4723 10.3991 3.33969 11.4638 4.43835 12.5625C5.53705 13.6612 6.60155 14.5285 7.63187 15.1644C8.25161 15.5506 8.9561 15.8846 9.74483 16.1665C9.81731 16.1906 10.0144 16.2629 10.3363 16.3839C10.6583 16.5046 10.8817 16.5871 11.0063 16.6314C11.1311 16.6757 11.3224 16.7342 11.5797 16.8067C11.8376 16.8792 12.0688 16.9295 12.2741 16.9579C12.4794 16.9857 12.6907 17 12.9079 17C13.6483 17 14.3971 16.7947 15.1537 16.3842C15.9664 15.9336 16.4573 15.507 16.6263 15.1042C16.7152 14.9032 16.7994 14.6275 16.8799 14.2772C16.9606 13.9272 17.0007 13.6435 17.0007 13.4261C17.0009 13.3131 16.9888 13.2287 16.9645 13.1719Z" fill="#1E4D5B"/>
</g>
<defs>
<clipPath id="clip0">
<rect width="17" height="17" fill="white"/>
</clipPath>
</defs>
</svg>
